<svg version="1" xmlns="http://www.w3.org/2000/svg" width="312" height="312" viewBox="0 0 234.000000 234.000000"><path d="M96 45v9h18V36H96v9zM72 81v21h18V60H72v21zM96 69v9h18V60H96v9zM120 69v9h18V60h-18v9zM24 93v9h18V84H24v9zM48 117v33h18V84H48v33zM96 93v9h18V84H96v9zM120 105v21h18V84h-18v21zM144 93v9h18V84h-18v9zM24 117v9h18v-18H24v9zM72 117v9h18v-18H72v9zM96 117v9h18v-18H96v9zM144 117v9h18v-18h-18v9zM168 141v33h18v-66h-18v33zM192 117v9h18v-18h-18v9zM0 141v9h18v-18H0v9zM24 141v9h18v-18H24v9zM72 141v9h18v-18H72v9zM96 141v9h18v-18H96v9zM120 141v9h18v-18h-18v9zM144 141v9h18v-18h-18v9zM192 141v9h18v-18h-18v9zM216 141v9h18v-18h-18v9zM24 165v9h18v-18H24v9zM48 165v9h18v-18H48v9zM72 165v9h18v-18H72v9zM96 177v21h18v-42H96v21zM120 165v9h18v-18h-18v9zM144 165v9h18v-18h-18v9zM48 189v9h18v-18H48v9zM120 189v9h18v-18h-18v9z"/></svg>