<svg version="1" xmlns="http://www.w3.org/2000/svg" width="373.333" height="373.333" viewBox="0 0 280.000000 280.000000"><path d="M114.9 44.2c0 2.1-.1 5.8-.1 8.3 0 10.4-1.2 9.4 10.7 9.3l10.5-.1V40.5h-10.5l-10.5-.1-.1 3.8zM86.9 72.5c-.1 4.3 0 33.1 0 40.7l.1 4.6h10.5l10.5.1-.2-24.7-.3-24.7H97.3L87 68.4l-.1 4.1zM114.9 73.7c0 2.9-.1 6.6-.1 8.3 0 1.6.1 4.1.1 5.5l.1 2.4 10.5-.1h10.6l-.3-10.7-.3-10.6h-10.2l-10.3-.1-.1 5.3zM143 79.1v10.7h10.5c7.5.1 10.5-.2 10.6-1.1.4-5.5.3-19.7-.1-19.8-.3-.1-5.1-.2-10.7-.3l-10.3-.2v10.7zM31.2 97c-.5.3-.8 5.1-.7 10.7v10.2l10.7-.1 10.7-.1-.2-10.6-.2-10.6h-9.8c-5.4 0-10.1.2-10.5.5zM58.9 96.9c-.1.4-.2 17.8-.3 38.8l-.1 38.3h21.2l-.1-38.7-.1-38.8H69.3c-5.7-.1-10.4.1-10.4.4zM115.2 97c-.4.3-.6 3-.5 6 0 3 .2 7.6.2 10.1l.1 4.7 10.3-.2 10.2-.1v-21h-9.8c-5.4 0-10.1.2-10.5.5zM143 121.1v24.6l10 .1c6.1 0 10.2-.4 10.6-1 1.2-1.8 1-46.9-.1-47.6-.5-.4-5.4-.7-10.7-.7l-9.8-.1v24.7zM171 107.1v10.8l10-.1c8.3 0 10.2-.3 10.8-1.7.9-2 .8-17.9-.2-18.8-.4-.4-5.2-.8-10.7-.8l-9.9-.1v10.7zM33.5 124.8l-3.1.3.1 10.2v10.2h21l.1-10.3.2-10.2-3.2-.1c-1.7 0-5.1-.2-7.6-.2-2.5-.1-5.9-.1-7.5.1zM87.5 125c-.5.8-.7 6.7-.6 14.2l.1 6.7 10.5-.1 10.5-.1v-10.3c0-5.7-.3-10.4-.7-10.5-4.3-.3-19.6-.3-19.8.1zM115.8 125.1c-.6.4-1.1 5.1-1.2 10.7l-.1 9.9H136v-21.2h-9.6c-5.3 0-10.1.3-10.6.6zM172.7 124.8c-1.5.3-1.7 1.9-1.7 10.6v10.3l10.5.1c7.4 0 10.5-.3 10.6-1.1.4-6.1.3-18.1-.2-18.9-.6-.9-15.6-1.7-19.2-1zM203.3 124.8l-4.1.3v38.5l-.1 38.5 10.7-.3 10.7-.3V124.8l-6.5-.1c-3.6-.1-8.4-.1-10.7.1zM229.3 124.8c-2.2.3-2.3.7-2.3 10.6v10.3l9.3.1c5 .1 9.9-.1 10.7-.3 1.3-.4 1.6-2.4 1.6-10.5 0-9.4-.2-10-2.1-10-1.1-.1-4.9-.2-8.5-.3-3.6-.1-7.5-.1-8.7.1zM7.4 152.8l-5.1.3-.1 10.4-.1 10.5H23.8v-10.5c0-10.1-.1-10.5-2.1-10.6-1.2 0-3.8-.1-5.7-.2-1.9-.1-5.8-.1-8.6.1zM37.5 153l-7.1.5.1 10v10l10.7.3 10.6.3-.2-10.7-.1-10.7-3.5-.1c-1.9-.1-6.7.1-10.5.4zM123.5 152.8l-9 .3.2 8.2c.1 4.5.2 9.2.3 10.4 0 2.2.3 2.3 10.5 2.3H136v-10.4c0-12.1 1-11.2-12.5-10.8zM149.8 152.8l-6.8.3V174h10.5c9.3 0 10.5-.2 10.6-1.8.4-8.5.3-17.6-.3-18.4-.7-1.2-4-1.4-14-1zM175.8 152.8l-4.8.3V174h10.5c7.7 0 10.5-.3 10.6-1.3.4-5.9.3-18.1-.2-18.8-.6-1-8.9-1.6-16.1-1.1zM229.3 152.8c-2.2.3-2.3.7-2.3 10.8v10.5l10.8-.3 10.7-.3v-10.3l.1-10.2-6.6-.1c-3.6 0-7.4-.2-8.5-.3-1.1-.1-3 0-4.2.2zM256.7 153c-.9.4-1.3 3.5-1.2 10.5v10l10.7.3 10.7.3v-10.5l.1-10.5-9.6-.3c-5.2-.2-10.1-.1-10.7.2zM86.9 154c0 .5-.1 2.3-.1 4 0 1.6.1 5.9.1 9.5l.1 6.5h21v-21H97.5c-6.3 0-10.5.4-10.6 1zM32.3 181c-1.7.4-1.9 1.6-1.8 10.5v10l10.7.3 10.6.3-.1-10.8v-10.8h-8.8c-4.8 0-9.6.2-10.6.5zM60.3 181c-1.6.4-1.8 1.7-1.8 10.7V202h21.4l-.1-10.5c0-9.1-.2-10.5-1.6-10.6-7.8-.4-16.4-.3-17.9.1zM91.3 180.8c-2.4.2-4.3.7-4.4 1.3 0 .5-.1 2.2-.1 3.9 0 1.6.1 5.9.1 9.5l.1 6.5h21v-21l-4.2-.1c-2.4 0-5.2-.1-6.3-.2-1.1-.1-3.9-.1-6.2.1zM116.7 180.8c-1.9.4-1.8-1.1-1.9 27.5 0 11.4.3 21.1.6 21.4.5.5 14.9.7 19.9.4.4-.1.7-11.2.7-24.9v-24.7h-8.8c-4.9 0-9.6.1-10.5.3zM147.3 180.8l-4.3.3V202h10.5c9.3 0 10.5-.2 10.6-1.8.4-7.6.3-17.5-.1-18.2-.6-.9-10.6-1.6-16.7-1.2zM177.3 180.8l-6.3.3V202h10.5c7.7 0 10.5-.3 10.6-1.3 0-.6.1-5.4.2-10.5.2-9.2.2-9.2-2.3-9.3-1.4 0-3.4-.1-4.5-.2s-4.8-.1-8.2.1zM61 208.8c-2.6.3-2.6.3-2.5 10.2 0 5.4.3 10.2.7 10.5.4.4 5.1.8 10.5.8h9.8l.2-10.6.1-10.7-3.1-.1c-1.8 0-5.4-.1-8.2-.2-2.7-.1-6.1-.1-7.5.1zM144.7 208.8c-1.5.3-1.7 1.8-1.7 10.8 0 8.5.3 10.4 1.5 10.5.8 0 5.6.1 10.5.2 8.4.2 9 .1 9.1-1.8 0-1.1.1-6 .2-10.9v-8.9l-9-.1c-4.9-.1-9.7 0-10.6.2z"/></svg>