<?xml version="1.0" encoding="utf-8"?>
<!-- Generator: Adobe Illustrator 15.0.0, SVG Export Plug-In . SVG Version: 6.00 Build 0)  -->
<!DOCTYPE svg PUBLIC "-//W3C//DTD SVG 1.1//EN" "http://www.w3.org/Graphics/SVG/1.1/DTD/svg11.dtd">
<svg version="1.1" id="Layer_1" xmlns="http://www.w3.org/2000/svg" xmlns:xlink="http://www.w3.org/1999/xlink" x="0px" y="0px"
	 width="400.169px" height="163px" viewBox="0 0 400.169 163" enable-background="new 0 0 400.169 163" xml:space="preserve">
<g>
	<path fill="#65BCE5" d="M94.18,0h16.99c0.62,6.02,0.15,12.07,0.25,18.11c-5.76,0-11.51,0.09-17.26-0.08
		C94.19,12.02,94.17,6.01,94.18,0L94.18,0z"/>
	<path fill="#6EB3C3" d="M70.52,24.6c5.75-0.54,11.53-0.05,17.29-0.27c0.14,14.16,0.06,28.33,0.04,42.5
		c-5.69,0.01-11.39-0.08-17.08,0.05C70.36,52.79,70.84,38.69,70.52,24.6L70.52,24.6z"/>
	<path fill="#65BCE5" d="M94.23,24.34c5.77,0.17,11.54-0.22,17.3,0.23c-0.19,5.97,0,11.94-0.13,17.92
		c-5.76-0.04-11.53,0.19-17.29-0.13C94.27,36.36,94.1,30.35,94.23,24.34L94.23,24.34z"/>
	<path fill="#65BCE5" d="M117.6,24.6c5.71-0.56,11.47,0,17.2-0.32c0.31,6.06,0.05,12.12,0.17,18.18
		c-5.75,0.09-11.51,0.07-17.26,0.01C117.62,36.51,117.8,30.55,117.6,24.6L117.6,24.6z"/>
	<path fill="#198FCF" d="M23.51,48.55c5.68-0.03,11.37,0.15,17.04-0.13c0.44,6.08,0.1,12.18,0.19,18.27
		c-5.78-0.09-11.58,0.2-17.36-0.16C23.62,60.54,23.44,54.54,23.51,48.55L23.51,48.55z"/>
	<path fill="#198FCF" d="M47.05,48.57c5.75-0.02,11.5,0,17.25-0.01c0.02,22.19,0.02,44.38,0,66.57c-5.75-0.01-11.49,0-17.24-0.01
		C47.05,92.94,47.08,70.76,47.05,48.57L47.05,48.57z"/>
	<path fill="#65BCE5" d="M94.14,48.65c5.76-0.18,11.52-0.11,17.28-0.04c0.11,5.93-0.12,11.86,0.15,17.78
		c-5.75,0.69-11.57,0.11-17.35,0.31C94.12,60.68,94.23,54.67,94.14,48.65L94.14,48.65z"/>
	<path fill="#65BCE5" d="M141.14,48.81c5.76-0.57,11.56-0.13,17.33-0.24c-0.05,6.08,0.31,12.17-0.2,18.23
		c-5.66-0.21-11.33-0.09-16.99-0.09C141.17,60.74,141.36,54.77,141.14,48.81L141.14,48.81z"/>
	<path fill="#0AA6DD" d="M23.39,73.15c5.8-0.29,11.6-0.14,17.4-0.1c-0.06,5.99-0.07,11.99,0,17.98
		c-5.8,0.08-11.62,0.319-17.41-0.141C23.58,84.98,23.55,79.06,23.39,73.15L23.39,73.15z"/>
	<path fill="#104C63" d="M70.32,89.2c0.44-5.53,4.54-11.84,10.73-11.39c7.27,0.05,14.55-0.13,21.82,0.12
		c-0.05,1.99-0.07,3.98-0.08,5.97c-7.27,0.1-14.53-0.021-21.8,0.05c-3.76-0.38-5.9,3.79-5.84,7.04c0.04,3.49-0.65,7.38,1.4,10.46
		c0.91,1.49,2.58,2.5,4.36,2.39c7.31,0.141,14.61-0.07,21.92,0.09c-0.02,1.98-0.02,3.96-0.02,5.95c-7.63,0.07-15.27,0.11-22.9,0
		c-3.82-0.11-6.8-3.21-8.3-6.49C69.66,98.94,70.12,93.93,70.32,89.2L70.32,89.2z"/>
	<g>
		<path fill="#104C63" d="M313.31,63.76c-1.67,0.04-3.329,0.11-4.989,0.22c0.199,5.16-0.011,10.33,0.149,15.5
			c-3.739-2.4-8.279-1.53-12.46-1.67c-4,0.13-8.04-0.33-12,0.3c-4.319,1.62-6.479,6.49-6.41,10.871
			c-0.02,4.359-0.33,8.77,0.37,13.09c0.8,3.81,3.82,7.739,8.011,7.83c5.71,0.08,11.43,0.05,17.14,0.02
			c6.1-0.01,10.01-6.439,10.14-11.979C313.4,86.55,313.27,75.15,313.31,63.76z M307.51,100.68c-1.279,3-4.64,3.521-7.529,3.221
			c-4.9-0.181-9.83,0.27-14.711-0.23c-3.569-1.82-2.75-6.38-2.859-9.67c0.2-3.16-0.73-7.13,2.04-9.47
			c3.569-1.32,7.729-0.28,11.53-0.59c3.989,0.25,9.77-1.44,11.659,3.359C308.83,91.57,308.9,96.46,307.51,100.68z"/>
		<path fill="#104C63" d="M136.07,77.81c-7.95,0.03-15.9-0.09-23.85,0.08c0.03,2,0.04,4,0.04,5.99c8.26,0.18,16.52-0.1,24.77,0.13
			c3.09,0.311,3.46,4.09,3.71,6.53c-7.91-1.06-15.96-0.42-23.93-0.44c-9.42,1.25-9.75,17.601-0.61,19.601
			c5.26,0.54,10.57,0.08,15.85,0.25c3.2-0.13,6.79,0.54,9.56-1.48c2.7-1.89,3.71-5.34,3.73-8.5c0.04-4.31,0.17-8.63-0.09-12.93
			C144.94,82.38,141.14,77.36,136.07,77.81z M140.08,101.92c-0.65,2.18-3.35,1.89-5.12,1.97c-5.93-0.14-11.89,0.24-17.81-0.199
			c-3.59-0.511-3.56-7.011,0.03-7.48c6.6-0.31,13.23-0.15,19.84-0.09C140.06,95.85,141.26,99.57,140.08,101.92z"/>
		<path fill="#104C63" d="M181.27,90.61c-7.07-0.641-14.21,0.109-21.3-0.351c-3.77-0.02-3.6-6.229,0.05-6.229
			c8.23-0.29,16.48,0.04,24.73-0.16c-0.01-2,0-3.99,0.02-5.99c-7.23-0.16-14.47-0.01-21.71-0.09c-2.57,0.02-5.5-0.12-7.5,1.8
			c-5.53,4.43-3.95,15.37,3.43,16.73c7.27,0.699,14.64-0.32,21.9,0.479c3.35,1.09,2.63,6.86-0.95,6.98
			c-9.25,0.29-18.52-0.08-27.78,0.17c0.02,1.97,0.03,3.95,0.03,5.92c9.62,0.03,19.25,0.25,28.86-0.09
			C190.15,108.07,190.29,92.54,181.27,90.61z"/>
		<path fill="#104C63" d="M205.94,83.96c7.369-0.1,14.739,0.021,22.1-0.04c0.01-2.03,0.02-4.07,0.03-6.11
			c-7.351,0.02-14.71-0.04-22.061,0.02c-4.83-0.31-8.44,3.99-9.76,8.22c-1.06,4.181-0.76,8.57-0.54,12.83
			c0.45,5.271,4.39,11.15,10.19,11.04c7.39,0.05,14.779,0.01,22.17-0.01c-0.011-2.01-0.011-4.021-0.011-6.03
			c-7.029-0.03-14.06,0.021-21.079,0c-1.601,0.05-3.33-0.22-4.391-1.54c-2.9-3.03-2.1-7.58-2.13-11.38
			C200.45,87.84,202.34,83.82,205.94,83.96z"/>
		<path fill="#104C63" d="M262.03,77.84c-8.141-0.09-16.28,0.01-24.41-0.03c0.01,2.04,0.01,4.08,0.02,6.12
			c8.46,0.11,16.931-0.199,25.391,0.141c2.58,1.1,2.87,4.149,2.85,6.59c-7.54-1.37-15.3-0.391-22.93-0.62
			c-9.75,0.28-10.95,16.47-2.26,19.45c7.649,0.89,15.489,0.42,23.189,0.26c4-0.61,6.46-4.59,6.71-8.39
			c0.28-4.681,0.24-9.391,0.03-14.061C270.27,82.82,267,77.71,262.03,77.84z M262.97,103.74c-6.66,0.25-13.35,0.21-20.01,0.02
			c-3.87-0.02-4.32-6.56-0.8-7.5c6.95-0.38,13.95-0.26,20.899-0.06C266.86,96.65,266.72,103.34,262.97,103.74z"/>
		<path fill="#104C63" d="M356.74,95.84c0.24-5.37,0.02-11.5-4.16-15.46c-3.79-3.98-9.75-2.18-14.6-2.56
			c-4.78,0.39-10.971-1.56-14.33,2.96c-3.931,4.84-2.44,11.43-2.71,17.161c-0.301,5.02,2.39,11.359,7.979,11.93
			c9.271,0.13,18.54,0.08,27.811,0.01c0.01-1.96,0.029-3.92,0.069-5.88c-9.21-0.37-18.45,0.12-27.649-0.24
			c-3.5-0.8-3.36-5.06-3.341-7.88C336.12,95.85,346.43,95.92,356.74,95.84z M329.91,83.96c5.74-0.02,11.5-0.15,17.24,0.07
			c2.79,0.26,3.779,3.399,4.83,5.529c-8.711,0.45-17.44,0.021-26.15,0.23C325.7,87.31,326.86,83.75,329.91,83.96z"/>
		<path fill="#104C63" d="M396.86,80.22c-2.95-3.48-7.91-2.18-11.891-2.41c-4.91,0.25-9.95-0.55-14.77,0.47
			c-4.42,1.95-6.101,7.201-5.95,11.701c0.21,5.89-1.21,12.88,3.31,17.579c2.87,3.311,7.54,2.221,11.391,2.381
			c4.81-0.181,9.66,0.35,14.45-0.271c5.159-1.67,6.979-7.71,6.739-12.63C399.98,91.39,401.13,84.74,396.86,80.22z M392.46,103.65
			c-6.14,0.52-12.35,0.1-18.51,0.22c-2.431,0.41-4.391-1.67-4.67-3.94c-0.32-3.319-0.16-6.67-0.15-10
			c-0.04-2.01,0.37-4.33,2.16-5.55c6.43-1.01,13.2-0.21,19.76-0.42c4.16-0.12,4.3,5.06,4.101,8.06
			C394.72,95.85,396.55,101.32,392.46,103.65z"/>
	</g>
	<path fill="#65BCE5" d="M0,96.96c5.74-0.04,11.49-0.03,17.23-0.01c0.03,6.03,0.03,12.06,0,18.09c-5.74,0.04-11.49,0.02-17.23,0.03
		V96.96L0,96.96z"/>
	<path fill="#0AA6DD" d="M23.42,97.11c5.78-0.341,11.56-0.141,17.34-0.13c0,6-0.04,12,0.03,17.989c-5.8,0.09-11.61,0.28-17.4-0.109
		C23.58,108.95,23.53,103.03,23.42,97.11L23.42,97.11z"/>
	<path fill="#0AA6DD" d="M23.42,121.12c5.78-0.351,11.57-0.18,17.36-0.11c-0.03,6-0.07,12,0.02,18c-5.79,0.13-11.61,0.33-17.4-0.12
		C23.57,132.97,23.54,127.04,23.42,121.12L23.42,121.12z"/>
	<path fill="#0AA6DD" d="M47.06,120.94c5.75-0.011,11.5,0,17.25,0c0.01,6.06,0.01,12.119,0,18.18c-5.75,0.01-11.5,0.01-17.25,0
		C47.05,133.06,47.05,127,47.06,120.94L47.06,120.94z"/>
	<path fill="#198FCF" d="M70.64,120.94c5.74,0,11.49,0,17.23,0c0.01,6.06,0,12.109,0.01,18.17c-5.75,0.04-11.5,0.01-17.25,0.01
		C70.62,133.06,70.61,127,70.64,120.94L70.64,120.94z"/>
	<path fill="#198FCF" d="M94.18,120.97c5.75-0.06,11.5-0.029,17.26-0.029c-0.01,14.02,0.01,28.04-0.01,42.06H94.18
		C94.18,148.99,94.19,134.98,94.18,120.97L94.18,120.97z"/>
	<path fill="#6EB3C3" d="M117.73,120.94c5.73,0,11.46-0.021,17.2,0.01c0.02,6.04,0,12.09,0.01,18.13
		c-5.74,0.08-11.48,0.04-17.22,0.03C117.68,133.05,117.65,127,117.73,120.94L117.73,120.94z"/>
	<path fill="#6EB3C3" d="M141.22,121.03c5.64-0.101,11.3-0.24,16.94,0.02c0.92,5.75-0.06,11.9,0.44,17.8
		c-5.79,0.511-11.62,0.32-17.41,0.11C141.29,132.98,141.25,127,141.22,121.03L141.22,121.03z"/>
	<path fill="#0AA6DD" d="M47.06,144.88c5.75-0.01,11.5-0.01,17.25,0c0.01,6.04,0,12.08,0.01,18.12H47.05
		C47.06,156.96,47.05,150.92,47.06,144.88L47.06,144.88z"/>
	<path fill="#198FCF" d="M117.69,144.88c5.75-0.01,11.5-0.01,17.25-0.01c0,6.05,0,12.09,0,18.13h-17.22
		C117.66,156.96,117.69,150.92,117.69,144.88L117.69,144.88z"/>
</g>
</svg>
