<svg version="1" xmlns="http://www.w3.org/2000/svg" width="373.333" height="373.333" viewBox="0 0 280.000000 280.000000"><path d="M115.9 40.7c-.1.9-.1 18.5 0 19.5.1.5 4.8.8 10.6.8H137V40h-10.5c-5.8 0-10.5.3-10.6.7zM88.7 68.2c-.9.4-1.2 6.9-1 24 .1 12.8.2 23.6.2 24 .1.5 4.8.8 10.6.8H109V92.5c0-18.9-.3-24.5-1.2-24.6-6.4-.4-18.2-.3-19.1.3zM116.2 68.4c-.4.8-.7 16.4-.3 19.8.1.5 4.8.8 10.6.8H137V78.5c0-7.7-.3-10.5-1.2-10.6-7.9-.5-19.1-.2-19.6.5zM143.9 68.5c-.1 1.3-.1 18.8 0 19.7.1.5 4.8.8 10.6.8H165V78.5c0-5.8-.3-10.5-.7-10.6-6.1-.6-20.3-.2-20.4.6zM33.2 96.1c-1.6.6-2 6.3-1.3 19.1.1 1.6 1.3 1.8 10.6 1.8H53v-10.5c0-5.8-.3-10.5-.7-10.6-3.9-.4-17.8-.3-19.1.2zM60.1 97c-.5 1.1-.7 70.9-.2 75.2.1.4 4.8.7 10.6.7l10.5-.2v-38.3c0-21.1-.3-38.4-.7-38.5-.5 0-5-.1-10.1-.2-7.5-.2-9.5.1-10.1 1.3zM116.2 95.7c-.5.2-.7 13-.3 20 .1 1 2.9 1.3 10.6 1.3H137v-10.5c0-5.8-.3-10.5-.7-10.6-2.4-.2-19.4-.4-20.1-.2zM144.2 96.4c-.4.8-.7 39.4-.3 46.7.1 1.4 1.6 1.6 10.6 1.7H165v-24.4c0-18.8-.3-24.4-1.2-24.5-7.8-.5-19.1-.2-19.6.5zM172.1 97c-.5 1.2-.6 13.7-.2 19 .1.6 4.3 1 10.6 1H193v-10.5c0-7.7-.3-10.5-1.2-10.6-.7 0-5.3-.1-10.1-.2-7.1-.2-9 .1-9.6 1.3zM32.2 124.5c-.6.8-.7 11.2-.3 18.6.1 1.4 1.6 1.6 10.6 1.7H53v-10.4c0-7.6-.3-10.4-1.2-10.5-8.1-.5-19.1-.2-19.6.6zM88.2 124.4c-.4.8-.7 16.4-.3 19.9.1.4 4.8.6 10.6.6l10.5-.2v-10.3c0-7.6-.3-10.4-1.2-10.5-7.8-.5-19.1-.2-19.6.5zM116.2 124.4c-.4.8-.6 12.4-.3 18.8.1 1.4 1.5 1.7 10.6 1.7l10.5.1v-10.5c0-7.7-.3-10.5-1.2-10.6-7.6-.5-19.1-.2-19.6.5zM172.1 125c-.5 1.2-.6 13.7-.2 19 .1.6 4.3 1 10.6 1H193v-10.5c0-5.8-.3-10.5-.7-10.6-.5 0-5-.1-10.1-.2-7.5-.2-9.5.1-10.1 1.3zM200.7 124.2c-.9.5-1.2 10.1-1 37.5.1 20.2.2 37.3.2 38 .1.8 3.3 1.1 10.6 1.1H221v-38.4c0-21.1-.3-38.4-.7-38.5-4.4-.4-18.7-.2-19.6.3zM228.2 124.4c-.4.8-.6 12.1-.3 18.9.1 1.6 1.1 1.8 10.4 1.5l10.2-.3.2-10.3c.2-9.1.1-10.2-1.5-10.3-9.2-.5-18.5-.2-19 .5zM4 162.2v10.7l10.5-.1H25v-21.4l-10.5.1H4v10.7zM31.9 152c-.1.7-.1 18.2 0 19.7.1.9 3 1.2 10.6 1.2H53v-21.5l-10.5.1c-5.8 0-10.5.2-10.6.5zM87.9 152.2c0 .5-.1 4.6-.1 9.3 0 4.7.1 9.2.1 10 .1 1.2 2 1.4 10.6 1.4l10.5-.2v-21.2H98.5c-5.8 0-10.5.3-10.6.7zM116.3 151.7c-.6.2-.9 15.7-.4 20.5.1.4 4.8.7 10.6.6H137V151.5h-9.9c-5.5 0-10.3.1-10.8.2zM143.9 152c-.1.7-.1 18.1 0 19.8.1.9 2.7 1.2 10.6 1.1l10.5-.2V151.4l-10.5.1c-5.8 0-10.5.2-10.6.5zM171.9 152c-.1.7-.1 17.1 0 19.2.1 1.4 1.5 1.6 10.6 1.6l10.5.1v-21.5h-10.5c-5.8.1-10.5.3-10.6.6zM227.9 152.4c-.1 1.3-.1 18.8 0 19.8.1.4 4.8.7 10.4.6h10.4l.2-10.4c.1-5.7-.2-10.5-.6-10.5-4.6-.7-20.3-.3-20.4.5zM256.2 153c-.6 1.2-.7 12.7-.3 18.8.1.9 2.7 1.1 10.4 1l10.2-.3v-20.9l-9.8-.1c-8-.1-10 .2-10.5 1.5zM32.1 181c-.5 1.2-.6 10.9-.2 18.1.1 1.4 1.7 1.7 10.6 1.8l10.5.1v-21.6l-10.1.1c-8 0-10.2.3-10.8 1.5zM60.1 181c-.5 1.2-.6 12.4-.2 18.7.1.8 3.2 1.2 10.6 1.2H81v-21.5l-10.1.1c-8 0-10.2.3-10.8 1.5zM87.9 180.5c-.1 1.3-.1 18.8 0 19.7.1.5 4.8.8 10.6.8H109v-21.6l-10.5.1c-6.2 0-10.5.4-10.6 1zM116.1 181c-.5 1.2-.7 34.2-.2 45.7.1 2.2.4 2.2 10.6 2.2l10.5-.2v-49.3l-10.1.1c-8 0-10.2.3-10.8 1.5zM143.9 180.2c-.1 1-.1 17.4 0 19.2.1 1.2 2.2 1.4 10.6 1.4H165v-21.4l-10.5.1c-5.8 0-10.5.3-10.6.7zM171.9 180.5c-.1 1.3-.1 18.8 0 19.8.1.4 4.8.6 10.6.6l10.5-.2V179.4l-10.5.1c-6.3 0-10.5.4-10.6 1zM60.2 208.5c-.6.8-.7 10.9-.3 18.7.1 1.4 1.5 1.6 10.6 1.6H81V207.5l-10-.1c-5.9 0-10.4.4-10.8 1.1zM144.1 209c-.5 1.2-.6 11.1-.2 18.2.1 1.4 1.5 1.6 10.6 1.6H165v-21.4l-10.1.1c-8 0-10.2.3-10.8 1.5z"/></svg>